<svg xmlns="http://www.w3.org/2000/svg" width="20" height="20">
    <defs>
        <style>
            .cls-2{fill:#fff}
        </style>
    </defs>
    <g id="그룹_201525" data-name="그룹 201525" transform="translate(18152 8475)">
        <path id="사각형_280110" data-name="사각형 280110" transform="translate(-18152 -8475)" style="fill:none" d="M0 0h20v20H0z"/>
        <g id="그룹_201505" data-name="그룹 201505" transform="translate(-20965.594 -8148.096)">
            <path id="패스_15643" data-name="패스 15643" class="cls-2" d="M2821.375-305.082c-2.39-.014-4.365-5.015-4.365-7.561 0-4.16 3.043-5.071 4.217-5.071a4.758 4.758 0 0 1 1.591.4 3.507 3.507 0 0 0 .908.267 2.772 2.772 0 0 0 .652-.217 5.121 5.121 0 0 1 1.965-.487 3.988 3.988 0 0 1 3.37 1.745l.246.379-.354.274a3.061 3.061 0 0 0-1.427 2.516 2.843 2.843 0 0 0 1.545 2.625c.221.137.45.277.45.585 0 .2-1.565 4.519-3.838 4.519a3.032 3.032 0 0 1-1.3-.323 2.572 2.572 0 0 0-1.154-.285 2.912 2.912 0 0 0-.913.254 4.394 4.394 0 0 1-1.584.379z" transform="translate(0 -3.592)"/>
            <path id="패스_15644" data-name="패스 15644" class="cls-2" d="M2833.192-325.133c.061 2.188-1.5 3.707-3.068 3.611a3.488 3.488 0 0 1 3.068-3.611z" transform="translate(-6.582)"/>
        </g>
    </g>
</svg>
