<svg xmlns="http://www.w3.org/2000/svg" width="172.946" height="37.359" viewBox="0 0 172.946 37.359">
    <defs>
        <style>
            .cls-1{fill:#091f2c}
        </style>
    </defs>
    <g id="그룹_233977" data-name="그룹 233977" transform="translate(-412 -164)">
        <g id="그룹_233976" data-name="그룹 233976" transform="translate(412 164)">
            <g id="그룹_233972" data-name="그룹 233972">
                <path id="패스_241963" data-name="패스 241963" class="cls-1" d="m494.368 411.4-12.731 10.748-8.832-3.187 12.726-10.743 8.212 2.959z" transform="translate(-462.5 -396.499)"/>
                <path id="패스_241964" data-name="패스 241964" d="m494.634 419.011-20.774 17.536a5.141 5.141 0 0 1-5.059.908l-16.345-5.894 8.021-6.771 11.115 4.008 15.019-12.68z" transform="translate(-452.457 -400.4)" style="fill:#0047a0"/>
                <path id="패스_241965" data-name="패스 241965" d="m494.634 391.274-2.288 1.932-8.021 6.771-.625-.222-8.212-2.959-12.727 10.743-8.021-2.893-2.283-.821 8.7-7.349 12.061-10.183a5.141 5.141 0 0 1 5.057-.908l5.421 1.954 2.1.754z" transform="translate(-452.457 -385.08)" style="fill:#cd2e3a;mix-blend-mode:multiply;isolation:isolate"/>
            </g>
            <g id="그룹_233975" data-name="그룹 233975" transform="translate(50.02 -.001)">
                <g id="그룹_233973" data-name="그룹 233973" transform="translate(3 9.68)">
                    <path id="패스_241966" data-name="패스 241966" class="cls-1" d="M554.21 406.746h12.137c.46 0 .614.154.614.614v8.7c0 .46-.154.613-.614.613h-4.8v4.527h7.776v2.1h-18.092v-2.1h7.755v-4.53h-4.8c-.461 0-.591-.131-.591-.591v-8.719c.005-.46.156-.614.615-.614zm10.318 7.843v-5.761h-8.5v5.761z" transform="translate(-551.231 -405.849)"/>
                    <path id="패스_241967" data-name="패스 241967" class="cls-1" d="M577.805 420.306c0 .461-.153.614-.614.614h-8.083c-.46 0-.591-.153-.591-.614v-13.319h2.452v4.688h4.382v-4.688h2.454zm-2.454-1.467V413.8h-4.381v5.039zM583.106 406v7.164h2.672v2.213h-2.672v10.23h-2.476V406z" transform="translate(-548.194 -405.98)"/>
                    <path id="패스_241968" data-name="패스 241968" class="cls-1" d="M584.386 410.933a4.851 4.851 0 0 1 5.149-4.753c3.066 0 5.147 2.082 5.147 4.753 0 2.761-2.081 4.8-5.147 4.8a4.832 4.832 0 0 1-5.149-4.8zm5.149 2.717a2.564 2.564 0 0 0 2.65-2.695 2.651 2.651 0 1 0-5.3 0 2.565 2.565 0 0 0 2.65 2.695zm-1.928 11.83c-.46 0-.614-.154-.614-.614v-3.921c0-.46.154-.614.614-.614h9.968v-1.467h-10.582v-1.928h12.575c.46 0 .613.154.613.614v3.9c0 .46-.153.614-.613.614h-9.924v1.49H600.6v1.928zm12.619-19.5v10.143h-2.476v-10.14z" transform="translate(-545.405 -405.983)"/>
                    <path id="패스_241969" data-name="패스 241969" class="cls-1" d="M612.85 406.418v2.671a6.907 6.907 0 0 0 4.8 6.113l-1.577 1.862a11.363 11.363 0 0 1-4.535-3.922c-.525 1.512-2.431 3.287-4.469 4.425l-1.949-1.665c3.22-1.577 5.083-3.987 5.1-6.769v-2.716zm-3.286 18.817c-.46 0-.591-.154-.591-.614V418.9h2.5v4.228h11.085v2.1zM622.094 406v14.415h-2.454V406z" transform="translate(-541.763 -405.98)"/>
                    <path id="패스_241970" data-name="패스 241970" class="cls-1" d="M639.692 417.9h-7.469v3.789h-2.542V417.9h-8.061v-2.082h18.072zm-15.9-4.294v-7.47h2.454v2.081h8.785v-2.081h2.469v7.47c0 .46-.153.612-.614.612h-12.507c-.459-.003-.591-.156-.591-.618zm.68 11.61c-.46 0-.591-.154-.591-.614v-5.324h2.5v3.834H638.1v2.1zm10.559-13.035v-1.949h-8.785v1.949z" transform="translate(-538.863 -405.957)"/>
                    <path id="패스_241971" data-name="패스 241971" class="cls-1" d="M637.862 414.692h18.073v2.081h-18.073zm2.081-8.281h13.889v2.082h-5.5c.591 1.993 3.791 2.978 6.725 3.351l-1.49 1.8c-2.563-.416-5.476-1.38-6.725-3.067-1.358 1.644-4.075 2.674-6.682 3.067l-1.511-1.774c3.526-.591 6.264-1.578 6.769-3.373h-5.477zm6.944 11.7c4.71 0 7.273 1.6 7.273 3.9s-2.519 3.9-7.273 3.9-7.273-1.6-7.273-3.9 2.563-3.902 7.273-3.902zm0 1.883c-2.76 0-4.49.768-4.49 1.994 0 1.292 1.731 1.993 4.49 1.993s4.491-.7 4.491-1.993c0-1.227-1.731-1.995-4.491-1.995z" transform="translate(-536.009 -405.908)"/>
                </g>
            </g>
        </g>
    </g>
</svg>
